<?xml version="1.0" encoding="UTF-8" standalone="no"?>
<svg
   xmlns:dc="http://purl.org/dc/elements/1.1/"
   xmlns:cc="http://creativecommons.org/ns#"
   xmlns:rdf="http://www.w3.org/1999/02/22-rdf-syntax-ns#"
   xmlns:svg="http://www.w3.org/2000/svg"
   xmlns="http://www.w3.org/2000/svg"
   xmlns:sodipodi="http://sodipodi.sourceforge.net/DTD/sodipodi-0.dtd"
   xmlns:inkscape="http://www.inkscape.org/namespaces/inkscape"
   width="45"
   height="45"
   viewBox="0 0 45 45"
   version="1.1"
   id="svg12"
   sodipodi:docname="githubLogo.svg"
   inkscape:version="1.0.1 (c497b03c, 2020-09-10)"
   inkscape:export-filename="/Users/jackpeplinski/Downloads/githubLogo.png"
   inkscape:export-xdpi="96"
   inkscape:export-ydpi="96">
  <metadata
     id="metadata18">
    <rdf:RDF>
      <cc:Work
         rdf:about="">
        <dc:format>image/svg+xml</dc:format>
        <dc:type
           rdf:resource="http://purl.org/dc/dcmitype/StillImage" />
      </cc:Work>
    </rdf:RDF>
  </metadata>
  <defs
     id="defs16" />
  <sodipodi:namedview
     pagecolor="#ffffff"
     bordercolor="#666666"
     borderopacity="1"
     objecttolerance="10"
     gridtolerance="10"
     guidetolerance="10"
     inkscape:pageopacity="0"
     inkscape:pageshadow="2"
     inkscape:window-width="1414"
     inkscape:window-height="872"
     id="namedview14"
     showgrid="false"
     inkscape:zoom="30.625"
     inkscape:cx="12"
     inkscape:cy="12"
     inkscape:window-x="0"
     inkscape:window-y="0"
     inkscape:window-maximized="0"
     inkscape:current-layer="svg12" />
  <path
     d="M 35.625,0 H 9.375 C 4.198125,0 0,4.198125 0,9.375 v 26.25 C 0,40.801875 4.198125,45 9.375,45 h 26.25 C 40.80375,45 45,40.801875 45,35.625 V 9.375 C 45,4.198125 40.80375,0 35.625,0 Z M 27.25125,36.73125 C 26.491875,36.8775 26.25,36.410625 26.25,36.01125 V 31.895625 C 26.25,30.495 25.75875,29.58375 25.21875,29.11875 28.56,28.7475 32.07,27.478125 32.07,21.718125 c 0,-1.63875 -0.585,-2.9775 -1.543125,-4.025625 0.15375,-0.37875 0.6675,-1.905 -0.148125,-3.969375 0,0 -1.258125,-0.403125 -4.12125,1.5375 C 25.0575,14.923125 23.775,14.76 22.5,14.7525 c -1.275,0.0056 -2.5575,0.170625 -3.755625,0.504375 -2.865,-1.940625 -4.125,-1.5375 -4.125,-1.5375 -0.81375,2.06625 -0.3,3.590625 -0.144375,3.97125 -0.96,1.05 -1.545,2.386875 -1.545,4.025625 0,5.745 3.500625,7.033125 6.834375,7.41375 -0.429375,0.375 -0.8175,1.035 -0.9525,2.00625 -0.856875,0.3825 -3.02625,1.044375 -4.365,-1.24875 0,0 -0.793125,-1.44 -2.300625,-1.546875 0,0 -1.4625,-0.01875 -0.103125,0.913125 0,0 0.984375,0.46125 1.666875,2.19375 0,0 0.868125,2.6775 5.04,1.77 v 2.791875 C 18.75,36.405 18.508125,36.87 17.76,36.73125 11.7975,34.749375 7.5,29.12625 7.5,22.5 c 0,-8.285625 6.71625,-15 15,-15 8.28375,0 15,6.714375 15,15 0,6.624375 -4.291875,12.245625 -10.24875,14.23125 z"
     id="path10"
     style="fill:#8b8b8b;fill-opacity:1;stroke-width:1.87501" />
</svg>
