<?xml version="1.0" encoding="UTF-8" standalone="no"?>
<svg
   xmlns:dc="http://purl.org/dc/elements/1.1/"
   xmlns:cc="http://creativecommons.org/ns#"
   xmlns:rdf="http://www.w3.org/1999/02/22-rdf-syntax-ns#"
   xmlns:svg="http://www.w3.org/2000/svg"
   xmlns="http://www.w3.org/2000/svg"
   xmlns:sodipodi="http://sodipodi.sourceforge.net/DTD/sodipodi-0.dtd"
   xmlns:inkscape="http://www.inkscape.org/namespaces/inkscape"
   width="45"
   height="45"
   viewBox="0 0 45 45"
   version="1.1"
   id="svg12"
   sodipodi:docname="linkedinLogo.svg"
   inkscape:export-filename="/Users/jackpeplinski/Downloads/linkedinLogo.png"
   inkscape:export-xdpi="96"
   inkscape:export-ydpi="96"
   inkscape:version="1.0.1 (c497b03c, 2020-09-10)">
  <metadata
     id="metadata18">
    <rdf:RDF>
      <cc:Work
         rdf:about="">
        <dc:format>image/svg+xml</dc:format>
        <dc:type
           rdf:resource="http://purl.org/dc/dcmitype/StillImage" />
      </cc:Work>
    </rdf:RDF>
  </metadata>
  <defs
     id="defs16" />
  <sodipodi:namedview
     pagecolor="#ffffff"
     bordercolor="#666666"
     borderopacity="1"
     objecttolerance="10"
     gridtolerance="10"
     guidetolerance="10"
     inkscape:pageopacity="0"
     inkscape:pageshadow="2"
     inkscape:window-width="1440"
     inkscape:window-height="872"
     id="namedview14"
     showgrid="false"
     inkscape:zoom="9.3245342"
     inkscape:cx="13.604413"
     inkscape:cy="14.132798"
     inkscape:window-x="0"
     inkscape:window-y="0"
     inkscape:window-maximized="0"
     inkscape:current-layer="svg12" />
  <path
     d="M 35.625,0 H 9.375 C 4.198125,0 0,4.198125 0,9.375 v 26.25 C 0,40.801875 4.198125,45 9.375,45 h 26.25 C 40.80375,45 45,40.801875 45,35.625 V 9.375 C 45,4.198125 40.80375,0 35.625,0 Z M 15,35.625 H 9.375 V 15 H 15 Z M 12.1875,12.6225 c -1.81125,0 -3.28125,-1.48125 -3.28125,-3.3075 0,-1.82625 1.47,-3.3075 3.28125,-3.3075 1.81125,0 3.28125,1.48125 3.28125,3.3075 0,1.82625 -1.468125,3.3075 -3.28125,3.3075 z M 37.5,35.625 H 31.875 V 25.1175 c 0,-6.315 -7.5,-5.836875 -7.5,0 V 35.625 H 18.75 V 15 h 5.625 v 3.309375 C 26.9925,13.460625 37.5,13.1025 37.5,22.951875 Z"
     id="path10"
     style="fill:#8b8b8b;fill-opacity:1;stroke-width:1.87501" />
</svg>
