<?xml version="1.0" encoding="UTF-8" standalone="no"?>
<svg
   xmlns:dc="http://purl.org/dc/elements/1.1/"
   xmlns:cc="http://creativecommons.org/ns#"
   xmlns:rdf="http://www.w3.org/1999/02/22-rdf-syntax-ns#"
   xmlns:svg="http://www.w3.org/2000/svg"
   xmlns="http://www.w3.org/2000/svg"
   xmlns:sodipodi="http://sodipodi.sourceforge.net/DTD/sodipodi-0.dtd"
   xmlns:inkscape="http://www.inkscape.org/namespaces/inkscape"
   width="45"
   height="45"
   fill-rule="evenodd"
   clip-rule="evenodd"
   version="1.1"
   id="svg12"
   sodipodi:docname="mediumLogo2.svg"
   inkscape:version="1.0.1 (c497b03c, 2020-09-10)"
   inkscape:export-filename="/Users/jackpeplinski/Downloads/mediumLogo.png"
   inkscape:export-xdpi="96"
   inkscape:export-ydpi="96">
  <metadata
     id="metadata18">
    <rdf:RDF>
      <cc:Work
         rdf:about="">
        <dc:format>image/svg+xml</dc:format>
        <dc:type
           rdf:resource="http://purl.org/dc/dcmitype/StillImage" />
        <dc:title></dc:title>
      </cc:Work>
    </rdf:RDF>
  </metadata>
  <defs
     id="defs16" />
  <sodipodi:namedview
     pagecolor="#ffffff"
     bordercolor="#666666"
     borderopacity="1"
     objecttolerance="10"
     gridtolerance="10"
     guidetolerance="10"
     inkscape:pageopacity="0"
     inkscape:pageshadow="2"
     inkscape:window-width="1440"
     inkscape:window-height="872"
     id="namedview14"
     showgrid="false"
     fit-margin-top="0"
     fit-margin-left="0"
     fit-margin-right="0"
     fit-margin-bottom="0"
     inkscape:zoom="10.475062"
     inkscape:cx="22.359777"
     inkscape:cy="22.075189"
     inkscape:window-x="0"
     inkscape:window-y="0"
     inkscape:window-maximized="0"
     inkscape:current-layer="svg12" />
  <path
     d="M 35.625,45 H 9.375 C 4.198125,45 0,40.801875 0,35.625 V 9.375 C 0,4.198125 4.198125,0 9.375,0 h 26.25 C 40.80375,0 45,4.198125 45,9.375 v 26.25 C 45,40.801875 40.805625,44.998125 35.625,45 Z M 37.44375,34.408125 V 33.90375 l -2.338125,-2.295 c -0.20625,-0.1575 -0.309375,-0.41625 -0.26625,-0.673125 v -16.87125 c -0.04312,-0.256875 0.06,-0.515625 0.26625,-0.673125 L 37.5,11.09625 V 10.591875 H 29.20875 L 23.29875,25.335 16.575,10.591875 H 7.87875 V 11.09625 L 10.68,14.469375 C 10.95375,14.71875 11.094375,15.0825 11.056875,15.45 v 13.26 c 0.0825,0.478125 -0.06937,0.9675 -0.405,1.31625 L 7.5,33.8475 v 0.504375 h 8.93625 V 33.8475 L 13.284375,30.02625 C 12.945,29.6775 12.785625,29.191875 12.849375,28.71 V 17.2425 L 20.6925,34.351875 h 0.91125 L 28.340625,17.2425 v 13.636875 c 0,0.36375 0,0.435 -0.238125,0.673125 L 25.68,33.90375 v 0.504375 z"
     id="path10"
     style="opacity:1;fill:#8b8b8b;fill-opacity:1;stroke-width:1.875" />
</svg>
