<?xml version="1.0" encoding="UTF-8" standalone="no"?>
<svg
   xmlns:dc="http://purl.org/dc/elements/1.1/"
   xmlns:cc="http://creativecommons.org/ns#"
   xmlns:rdf="http://www.w3.org/1999/02/22-rdf-syntax-ns#"
   xmlns:svg="http://www.w3.org/2000/svg"
   xmlns="http://www.w3.org/2000/svg"
   xmlns:sodipodi="http://sodipodi.sourceforge.net/DTD/sodipodi-0.dtd"
   xmlns:inkscape="http://www.inkscape.org/namespaces/inkscape"
   width="45"
   height="45"
   viewBox="0 0 45 45"
   version="1.1"
   id="svg12"
   sodipodi:docname="youtubeLogo.svg"
   inkscape:version="1.0.1 (c497b03c, 2020-09-10)"
   inkscape:export-filename="/Users/jackpeplinski/jack-peplinski/src/images/youtubeLogo.png"
   inkscape:export-xdpi="89.599998"
   inkscape:export-ydpi="89.599998">
  <metadata
     id="metadata18">
    <rdf:RDF>
      <cc:Work
         rdf:about="">
        <dc:format>image/svg+xml</dc:format>
        <dc:type
           rdf:resource="http://purl.org/dc/dcmitype/StillImage" />
        <dc:title></dc:title>
      </cc:Work>
    </rdf:RDF>
  </metadata>
  <defs
     id="defs16" />
  <sodipodi:namedview
     pagecolor="#ffffff"
     bordercolor="#666666"
     borderopacity="1"
     objecttolerance="10"
     gridtolerance="10"
     guidetolerance="10"
     inkscape:pageopacity="0"
     inkscape:pageshadow="2"
     inkscape:window-width="1400"
     inkscape:window-height="872"
     id="namedview14"
     showgrid="false"
     inkscape:zoom="10.151847"
     inkscape:cx="39.113786"
     inkscape:cy="14.211217"
     inkscape:window-x="0"
     inkscape:window-y="0"
     inkscape:window-maximized="0"
     inkscape:current-layer="svg12" />
  <path
     d="M 17.398125,25.35 H 15.6375 v 9.425625 H 13.935 V 25.35 H 12.1725 V 23.74875 H 17.4 V 25.35 Z m 10.115625,3.226875 v 4.51125 c 0,1.006875 -0.375,1.78875 -1.38,1.78875 -0.555,0 -1.014375,-0.2025 -1.438125,-0.7275 V 34.77375 H 23.17125 v -11.025 h 1.524375 v 3.549375 C 25.03875,26.881875 25.5,26.53875 26.041875,26.53875 c 1.10625,0 1.471875,0.935625 1.471875,2.038125 z m -1.55625,0.09187 c 0,-0.27375 -0.05063,-0.481875 -0.16125,-0.624375 -0.18375,-0.24187 -0.523125,-0.26812 -0.7875,-0.13312 l -0.313125,0.2475 v 5.068125 l 0.35625,0.286875 c 0.2475,0.12375 0.6075,0.133125 0.774375,-0.08438 0.08625,-0.11437 0.129375,-0.30187 0.129375,-0.56062 v -4.2 z m -4.400625,-10.98562 c 0.429375,0 0.66375,-0.343125 0.66375,-0.808125 v -3.973125 c 0,-0.478125 -0.208125,-0.81375 -0.695625,-0.81375 -0.444375,0 -0.661875,0.346875 -0.661875,0.81375 V 16.875 c 0.0019,0.45 0.256875,0.808125 0.69375,0.808125 z M 20.1825,32.814375 c -0.185625,0.230625 -0.594375,0.609375 -0.890625,0.609375 -0.3225,0 -0.403125,-0.22125 -0.403125,-0.5475 v -6.234375 h -1.509375 v 6.79875 c 0,1.65 1.119375,1.659375 1.933125,1.1925 0.3,-0.1725 0.590625,-0.425625 0.87,-0.755625 v 0.898125 h 1.513125 v -8.13375 H 20.1825 Z M 45,9.375 v 26.25 C 45,40.801875 40.80375,45 35.625,45 H 9.375 C 4.198125,45 0,40.801875 0,35.625 V 9.375 C 0,4.198125 4.198125,0 9.375,0 h 26.25 C 40.80375,0 45,4.198125 45,9.375 Z m -19.81125,8.300625 c 0,0.84375 0.256875,1.524375 1.11,1.524375 0.48,0 1.145625,-0.249375 1.835625,-1.066875 V 19.07625 H 29.7225 V 10.5375 h -1.588125 v 6.481875 c -0.195,0.241875 -0.624375,0.639375 -0.93375,0.639375 -0.34125,0 -0.42375,-0.2325 -0.42375,-0.575625 V 10.5375 H 25.18875 Z M 19.231875,12.76125 v 4.186875 c 0,1.505625 0.785625,2.2875 2.325,2.2875 1.27875,0 2.28375,-0.855 2.28375,-2.2875 V 12.76125 c 0,-1.336875 -0.995625,-2.295 -2.28375,-2.295 -1.396875,0 -2.325,0.924375 -2.325,2.295 z M 13.31625,7.5 l 2.128125,6.88125 v 4.695 h 1.786875 v -4.695 L 19.3125,7.5 H 17.495625 L 16.35,12.1275 15.11625,7.5 Z m 21.6825,21.875625 c -0.02625,-5.58375 -0.435,-7.7175 -3.958125,-7.959375 -3.25125,-0.22125 -13.831875,-0.22125 -17.079375,0 -3.5175,0.24 -3.93375,2.36625 -3.958125,7.959375 0.02625,5.58375 0.436875,7.719375 3.958125,7.959375 3.2475,0.22125 13.828125,0.22125 17.079375,0 C 34.56,37.093125 34.9725,34.96875 34.99875,29.375625 Z m -1.895625,-0.5475 v 2.07 h -2.89125 v 1.53375 c 0,0.609375 0.05063,1.138125 0.66,1.138125 0.6375,0 0.675,-0.429375 0.675,-1.138125 V 31.8675 h 1.55625 v 0.61125 c 0,1.5675 -0.67125,2.51625 -2.265,2.51625 -1.445625,0 -2.1825,-1.051875 -2.1825,-2.51625 v -3.650625 c 0,-1.411875 0.931875,-2.390625 2.296875,-2.390625 1.449375,-0.0019 2.150625,0.920625 2.150625,2.390625 z m -1.55625,-0.015 c 0,-0.549375 -0.11625,-0.9525 -0.661875,-0.9525 -0.560625,0 -0.673125,0.39375 -0.673125,0.9525 v 0.823125 h 1.335 z"
     id="path10"
     style="fill:#8b8b8b;fill-opacity:1;stroke-width:1.875"
     inkscape:export-filename="/Users/jackpeplinski/jack-peplinski/src/images/youtubeLogo.png"
     inkscape:export-xdpi="96"
     inkscape:export-ydpi="96" />
</svg>
